<?xml version="1.0" encoding="utf-8"?>
<svg xmlns="http://www.w3.org/2000/svg" viewBox="0 0 80 80" width="120" height="120">
  <path d="M39.990234 5 A 1.0001 1.0001 0 0 0 39.263672 5.3398438L32.556641 12.986328L23.359375 9.6152344 A 1.0001 1.0001 0 0 0 22.035156 10.359375L20.048828 20.333984L10.398438 22.015625 A 1.0001 1.0001 0 0 0 9.6230469 23.322266L12.892578 32.951172L5.3730469 39.232422 A 1.0001 1.0001 0 0 0 5.3554688 40.751953L13.001953 47.458984L9.6308594 56.65625 A 1.0001 1.0001 0 0 0 10.375 57.980469L20.349609 59.966797L22.029297 69.617188 A 1.0001 1.0001 0 0 0 23.335938 70.392578L32.966797 67.123047L39.248047 74.640625 A 1.0001 1.0001 0 0 0 40.767578 74.660156L47.474609 67.013672L56.671875 70.384766 A 1.0001 1.0001 0 0 0 57.996094 69.640625L59.980469 59.666016L69.630859 57.984375 A 1.0001 1.0001 0 0 0 70.40625 56.677734L67.138672 47.048828L74.65625 40.767578 A 1.0001 1.0001 0 0 0 74.673828 39.248047L67.029297 32.541016L70.398438 23.34375 A 1.0001 1.0001 0 0 0 69.654297 22.019531L59.679688 20.033203L58.001953 10.382812 A 1.0001 1.0001 0 0 0 56.695312 9.6074219L47.064453 12.876953L40.783203 5.359375 A 1.0001 1.0001 0 0 0 39.990234 5 z M 39.998047 7.5371094L45.96875 14.685547 A 1.0001 1.0001 0 0 0 47.056641 14.990234L56.232422 11.876953L57.828125 21.052734 A 1.0001 1.0001 0 0 0 58.617188 21.861328L68.119141 23.751953L64.916016 32.496094 A 1.0001 1.0001 0 0 0 65.195312 33.591797L72.476562 39.980469L65.330078 45.953125 A 1.0001 1.0001 0 0 0 65.023438 47.041016L68.138672 56.216797L58.962891 57.8125 A 1.0001 1.0001 0 0 0 58.152344 58.603516L56.263672 68.103516L47.517578 64.900391 A 1.0001 1.0001 0 0 0 46.421875 65.179688L40.033203 72.462891L34.060547 65.314453 A 1.0001 1.0001 0 0 0 32.972656 65.009766L23.798828 68.123047L22.203125 58.947266 A 1.0001 1.0001 0 0 0 21.412109 58.138672L11.912109 56.248047L15.115234 47.503906 A 1.0001 1.0001 0 0 0 14.835938 46.408203L7.5527344 40.019531L14.699219 34.046875 A 1.0001 1.0001 0 0 0 15.005859 32.958984L11.892578 23.783203L21.068359 22.1875 A 1.0001 1.0001 0 0 0 21.876953 21.396484L23.767578 11.896484L32.511719 15.099609 A 1.0001 1.0001 0 0 0 33.607422 14.820312L39.998047 7.5371094 z M 41.039062 18.039062C40.479063 18.009063 40.020234 18.440234 39.990234 18.990234C39.970234 19.540234 40.389453 20.009062 40.939453 20.039062L40.990234 20.039062C41.520234 20.039062 41.970234 19.620078 41.990234 19.080078C42.020234 18.530078 41.589062 18.059062 41.039062 18.039062 z M 36.859375 18.240234C36.309375 18.320234 35.939766 18.819141 36.009766 19.369141C36.079766 19.869141 36.51 20.230469 37 20.230469C37.05 20.230469 37.100625 20.230703 37.140625 20.220703L37.150391 20.220703C37.690391 20.140703 38.070234 19.629844 37.990234 19.089844C37.910234 18.539844 37.409375 18.160234 36.859375 18.240234 z M 44.78125 18.615234C44.395469 18.678047 44.068203 18.961875 43.970703 19.359375C43.840703 19.899375 44.170938 20.440313 44.710938 20.570312C44.790937 20.590313 44.869453 20.599609 44.939453 20.599609C45.399453 20.599609 45.809922 20.290078 45.919922 19.830078C46.049922 19.290078 45.709688 18.750859 45.179688 18.630859C45.044688 18.598359 44.909844 18.594297 44.78125 18.615234 z M 33.193359 19.175781C33.063984 19.167656 32.930781 19.185469 32.800781 19.230469C32.270781 19.410469 31.999688 19.98 32.179688 20.5C32.319688 20.91 32.709141 21.169922 33.119141 21.169922C33.229141 21.169922 33.339219 21.149141 33.449219 21.119141C33.969219 20.929141 34.250312 20.369844 34.070312 19.839844C33.935312 19.449844 33.581484 19.200156 33.193359 19.175781 z M 48.746094 19.898438C48.358438 19.886719 47.983047 20.105469 47.810547 20.480469C47.580547 20.990469 47.800781 21.580547 48.300781 21.810547C48.440781 21.870547 48.580703 21.900391 48.720703 21.900391C49.100703 21.900391 49.460859 21.680312 49.630859 21.320312C49.860859 20.810313 49.640859 20.220234 49.130859 19.990234C49.005859 19.932734 48.875312 19.902344 48.746094 19.898438 z M 29.367188 20.845703C29.238125 20.861172 29.110234 20.903203 28.990234 20.970703C28.510234 21.250703 28.350859 21.859844 28.630859 22.339844C28.810859 22.659844 29.150234 22.839844 29.490234 22.839844C29.670234 22.839844 29.84 22.789219 30 22.699219C30.47 22.429219 30.639375 21.809844 30.359375 21.339844C30.149375 20.979844 29.754375 20.799297 29.367188 20.845703 z M 52.011719 21.912109C51.757969 21.955859 51.519375 22.095312 51.359375 22.320312C51.039375 22.770312 51.139609 23.390937 51.599609 23.710938C51.769609 23.840938 51.979688 23.900391 52.179688 23.900391C52.489688 23.900391 52.800234 23.750469 52.990234 23.480469C53.310234 23.020469 53.209766 22.400078 52.759766 22.080078C52.534766 21.920078 52.265469 21.868359 52.011719 21.912109 z M 26.318359 23.162109C26.063359 23.144609 25.799844 23.225156 25.589844 23.410156C25.169844 23.770156 25.130234 24.400312 25.490234 24.820312C25.690234 25.050312 25.97 25.160156 26.25 25.160156C26.48 25.160156 26.710391 25.079922 26.900391 24.919922C27.320391 24.549922 27.36 23.92 27 23.5C26.82 23.295 26.573359 23.179609 26.318359 23.162109 z M 55.216797 24.507812C54.959297 24.501562 54.7 24.594062 54.5 24.789062C54.1 25.169062 54.090703 25.799219 54.470703 26.199219C54.670703 26.409219 54.929453 26.509766 55.189453 26.509766C55.439453 26.509766 55.690859 26.420469 55.880859 26.230469C56.280859 25.850469 56.299922 25.220312 55.919922 24.820312C55.729922 24.620313 55.474297 24.514063 55.216797 24.507812 z M 23.376953 26.0625C23.123203 26.0925 22.880938 26.219453 22.710938 26.439453C22.370938 26.869453 22.440859 27.499844 22.880859 27.839844C23.060859 27.989844 23.280234 28.060547 23.490234 28.060547C23.790234 28.060547 24.079297 27.919922 24.279297 27.669922C24.619297 27.239922 24.549375 26.609531 24.109375 26.269531C23.894375 26.099531 23.630703 26.0325 23.376953 26.0625 z M 57.494141 27.664062C57.365234 27.686875 57.236641 27.735547 57.119141 27.810547C56.659141 28.100547 56.530078 28.719453 56.830078 29.189453C57.020078 29.489453 57.339922 29.650391 57.669922 29.650391C57.849922 29.650391 58.040937 29.600234 58.210938 29.490234C58.670937 29.190234 58.809766 28.569609 58.509766 28.099609C58.284766 27.754609 57.880859 27.595625 57.494141 27.664062 z M 21.417969 29.421875C21.027969 29.392813 20.636719 29.593438 20.449219 29.960938C20.199219 30.450938 20.390859 31.050547 20.880859 31.310547C21.030859 31.380547 21.179844 31.419922 21.339844 31.419922C21.699844 31.419922 22.050469 31.219141 22.230469 30.869141L22.230469 30.880859C22.480469 30.380859 22.290781 29.779297 21.800781 29.529297C21.678281 29.466797 21.547969 29.431562 21.417969 29.421875 z M 59.519531 31.195312C59.390156 31.193437 59.258359 31.217031 59.130859 31.269531C58.610859 31.469531 58.370312 32.050312 58.570312 32.570312C58.730313 32.960312 59.1 33.189453 59.5 33.189453C59.63 33.189453 59.749141 33.169141 59.869141 33.119141C60.389141 32.919141 60.629688 32.330312 60.429688 31.820312C60.272188 31.437812 59.907656 31.200938 59.519531 31.195312 z M 19.746094 33.134766C19.360312 33.179297 19.020391 33.452109 18.900391 33.849609C18.750391 34.379609 19.050078 34.929844 19.580078 35.089844C19.680078 35.109844 19.769375 35.130859 19.859375 35.130859C20.299375 35.130859 20.700312 34.840156 20.820312 34.410156C20.980312 33.880156 20.670625 33.319922 20.140625 33.169922C20.008125 33.129922 19.874688 33.119922 19.746094 33.134766 z M 60.439453 35.039062C59.889453 35.149062 59.540625 35.670938 59.640625 36.210938C59.730625 36.690937 60.149141 37.029297 60.619141 37.029297C60.679141 37.029297 60.750547 37.019766 60.810547 37.009766C61.360547 36.899766 61.709375 36.379844 61.609375 35.839844C61.499375 35.299844 60.979453 34.939062 60.439453 35.039062 z M 19.210938 37.050781C18.660937 37.000781 18.169141 37.410938 18.119141 37.960938C18.069141 38.510937 18.479297 39.000781 19.029297 39.050781L19.119141 39.050781C19.629141 39.050781 20.069141 38.660625 20.119141 38.140625C20.159141 37.590625 19.760938 37.100781 19.210938 37.050781 z M 61 39C60.45 39 60 39.45 60 40C60 40.55 60.45 41 61 41C61.55 41 62 40.55 62 40C62 39.45 61.55 39 61 39 z M 19.029297 41.050781C18.479297 41.100781 18.080859 41.590625 18.130859 42.140625C18.180859 42.650625 18.620859 43.039062 19.130859 43.039062L19.220703 43.039062C19.770703 42.979062 20.169141 42.499219 20.119141 41.949219C20.069141 41.399219 19.579297 40.990781 19.029297 41.050781 z M 60.820312 42.900391C60.280313 42.800391 59.760156 43.159219 59.660156 43.699219C59.560156 44.239219 59.910938 44.769141 60.460938 44.869141C60.520938 44.879141 60.580625 44.880859 60.640625 44.880859C61.110625 44.880859 61.530859 44.550312 61.630859 44.070312C61.730859 43.520312 61.370312 43.000391 60.820312 42.900391 z M 19.996094 44.96875C19.866563 44.953437 19.732109 44.9625 19.599609 45C19.069609 45.16 18.769687 45.71 18.929688 46.25C19.059688 46.68 19.460625 46.960938 19.890625 46.960938C19.980625 46.960937 20.079922 46.949922 20.169922 46.919922C20.699922 46.759922 20.999609 46.209688 20.849609 45.679688C20.729609 45.282188 20.384688 45.014687 19.996094 44.96875 z M 59.511719 46.720703C59.123594 46.730547 58.757109 46.967109 58.599609 47.349609C58.399609 47.859609 58.649922 48.450391 59.169922 48.650391C59.289922 48.700391 59.409297 48.720703 59.529297 48.720703C59.929297 48.720703 60.310938 48.479844 60.460938 48.089844C60.670938 47.569844 60.420391 46.989063 59.900391 46.789062C59.772891 46.739063 59.641094 46.717422 59.511719 46.720703 z M 21.302734 48.667969C21.172734 48.679063 21.042422 48.714297 20.919922 48.779297C20.429922 49.029297 20.24 49.640859 20.5 50.130859C20.67 50.470859 21.020859 50.669922 21.380859 50.669922C21.540859 50.669922 21.699844 50.630781 21.839844 50.550781C22.329844 50.300781 22.519531 49.689219 22.269531 49.199219C22.082031 48.831719 21.692734 48.634687 21.302734 48.667969 z M 57.882812 50.285156C57.500781 50.22 57.098359 50.387734 56.880859 50.740234C56.580859 51.200234 56.709688 51.819141 57.179688 52.119141C57.349687 52.219141 57.530703 52.269531 57.720703 52.269531C58.050703 52.269531 58.370547 52.110547 58.560547 51.810547C58.860547 51.350547 58.72 50.729687 58.25 50.429688C58.135 50.354687 58.010156 50.306875 57.882812 50.285156 z M 23.664062 52.023438C23.409062 51.993437 23.144687 52.060469 22.929688 52.230469C22.499688 52.580469 22.429531 53.200625 22.769531 53.640625C22.969531 53.890625 23.260781 54.019531 23.550781 54.019531C23.770781 54.019531 23.989922 53.950781 24.169922 53.800781C24.609922 53.460781 24.679844 52.830391 24.339844 52.400391C24.164844 52.180391 23.919063 52.053438 23.664062 52.023438 z M 55.228516 53.417969C54.972266 53.424219 54.719297 53.530469 54.529297 53.730469C54.149297 54.140469 54.170313 54.770391 54.570312 55.150391C54.770313 55.330391 55.009766 55.419922 55.259766 55.419922C55.519766 55.419922 55.790234 55.319375 55.990234 55.109375C56.360234 54.709375 56.349219 54.069219 55.949219 53.699219C55.744219 53.504219 55.484766 53.411719 55.228516 53.417969 z M 26.242188 54.902344C25.987188 54.922344 25.740547 55.04 25.560547 55.25C25.200547 55.66 25.250156 56.300156 25.660156 56.660156C25.850156 56.820156 26.090313 56.900391 26.320312 56.900391C26.600312 56.900391 26.880078 56.780781 27.080078 56.550781C27.440078 56.130781 27.390703 55.500625 26.970703 55.140625C26.760703 54.960625 26.497187 54.882344 26.242188 54.902344 z M 52.414062 56.064453C52.162813 56.024453 51.894922 56.080234 51.669922 56.240234C51.219922 56.560234 51.119453 57.190859 51.439453 57.630859C51.639453 57.900859 51.94 58.050781 52.25 58.050781C52.46 58.050781 52.659844 57.989375 52.839844 57.859375C53.279844 57.539375 53.390547 56.910938 53.060547 56.460938C52.900547 56.240937 52.665312 56.104453 52.414062 56.064453 z M 29.693359 57.216797C29.306641 57.170391 28.913438 57.350938 28.710938 57.710938C28.430937 58.190937 28.600078 58.800078 29.080078 59.080078C29.230078 59.170078 29.400313 59.210938 29.570312 59.210938C29.920313 59.210938 30.259453 59.030938 30.439453 58.710938C30.719453 58.230938 30.550313 57.619844 30.070312 57.339844C29.950312 57.272344 29.822266 57.232266 29.693359 57.216797 z M 48.765625 58.058594C48.635469 58.0625 48.505859 58.092891 48.380859 58.150391C47.880859 58.380391 47.660391 58.980469 47.900391 59.480469C48.060391 59.850469 48.430781 60.060547 48.800781 60.060547C48.940781 60.060547 49.090703 60.030703 49.220703 59.970703C49.720703 59.740703 49.940937 59.140625 49.710938 58.640625C49.538437 58.265625 49.156094 58.046875 48.765625 58.058594 z M 33.136719 58.857422C32.748594 58.884609 32.394766 59.139297 32.259766 59.529297C32.089766 60.059297 32.360625 60.630781 32.890625 60.800781C32.990625 60.840781 33.100938 60.859375 33.210938 60.859375C33.630938 60.859375 34.020156 60.599688 34.160156 60.179688C34.330156 59.659687 34.059297 59.090156 33.529297 58.910156C33.399297 58.865156 33.266094 58.848359 33.136719 58.857422 z M 45.189453 59.394531C45.060703 59.373594 44.924062 59.377656 44.789062 59.410156C44.259062 59.540156 43.930547 60.079141 44.060547 60.619141C44.180547 61.079141 44.579297 61.380859 45.029297 61.380859C45.109297 61.380859 45.189531 61.369609 45.269531 61.349609C45.809531 61.219609 46.139766 60.680625 46.009766 60.140625C45.904766 59.743125 45.575703 59.457344 45.189453 59.394531 z M 37.230469 59.789062C36.680469 59.719062 36.179609 60.100391 36.099609 60.650391C36.029609 61.190391 36.410938 61.699297 36.960938 61.779297L36.960938 61.769531C37.000937 61.779531 37.049609 61.779297 37.099609 61.779297C37.589609 61.779297 38.020078 61.419922 38.080078 60.919922C38.160078 60.369922 37.780469 59.869062 37.230469 59.789062 z M 41.029297 59.960938C40.479297 59.990938 40.060078 60.459766 40.080078 61.009766C40.110078 61.539766 40.550078 61.960938 41.080078 61.960938L41.130859 61.960938C41.690859 61.930938 42.110078 61.460156 42.080078 60.910156C42.050078 60.360156 41.579297 59.930937 41.029297 59.960938 z" fill="#DAA01A" />
</svg>