<?xml version="1.0" encoding="utf-8"?>
<svg xmlns="http://www.w3.org/2000/svg" viewBox="0 0 80 80" width="500" height="500">
  <path d="M40 8C22.356 8 8 22.355 8 40C8 57.645 22.355 72 40 72C57.645 72 72 57.645 72 40C72 22.355 57.645 8 40 8 z M 40 10C56.542 10 70 23.458 70 40C70 56.542 56.542 70 40 70C23.458 70 10 56.542 10 40C10 23.458 23.458 10 40 10 z M 39.542969 12.994141C38.988969 13.008141 38.548687 13.466766 38.554688 14.009766C38.562688 14.522766 38.960984 14.945094 39.458984 14.996094C39.498984 15.000094 39.539125 14.994047 39.578125 14.998047C40.122125 14.983047 40.562641 14.525422 40.556641 13.982422C40.543641 13.428422 40.095969 12.991141 39.542969 12.994141 z M 43.679688 13.236328C43.134687 13.161328 42.632641 13.552656 42.556641 14.097656C42.480641 14.643656 42.860969 15.154703 43.417969 15.220703C43.962969 15.296703 44.462109 14.914141 44.537109 14.369141C44.614109 13.814141 44.223734 13.312094 43.677734 13.246094L43.679688 13.236328 z M 35.410156 13.388672C34.867156 13.483672 34.504609 13.999734 34.599609 14.552734C34.673609 15.001734 35.042469 15.33 35.480469 15.375C35.569469 15.384 35.660953 15.374281 35.751953 15.363281C36.294953 15.268281 36.659453 14.752938 36.564453 14.210938C36.469453 13.658938 35.953156 13.293672 35.410156 13.388672 z M 47.339844 14.074219C46.955141 14.115375 46.614297 14.386 46.498047 14.78125C46.332047 15.31725 46.636828 15.870391 47.173828 16.025391C47.232828 16.041391 47.290562 16.058453 47.351562 16.064453C47.818562 16.112453 48.272156 15.815656 48.410156 15.347656C48.565156 14.820656 48.269422 14.268281 47.732422 14.113281C47.600922 14.072031 47.468078 14.0605 47.339844 14.074219 z M 31.779297 14.363281C31.649594 14.353781 31.516719 14.369563 31.386719 14.414062C30.865719 14.593063 30.585672 15.1675 30.763672 15.6875C30.894672 16.0735 31.230375 16.318422 31.609375 16.357422C31.748375 16.371422 31.890391 16.354594 32.025391 16.308594C32.546391 16.130594 32.836203 15.567875 32.658203 15.046875C32.525453 14.649375 32.168406 14.391781 31.779297 14.363281 z M 51.226562 15.490234C50.837781 15.474859 50.458844 15.687797 50.277344 16.060547C50.044344 16.560547 50.255906 17.154484 50.753906 17.396484C50.859906 17.447484 50.965937 17.480187 51.085938 17.492188C51.493938 17.534188 51.897844 17.312922 52.089844 16.919922C52.321844 16.420922 52.109328 15.827937 51.611328 15.585938C51.486828 15.527687 51.356156 15.495359 51.226562 15.490234 z M 27.949219 15.941406C27.819734 15.952609 27.690609 15.991141 27.568359 16.056641C27.080359 16.308641 26.888391 16.911391 27.150391 17.400391C27.309391 17.708391 27.613641 17.898641 27.931641 17.931641C28.119641 17.950641 28.313141 17.920359 28.494141 17.818359L28.494141 17.828125C28.983141 17.566125 29.174828 16.962609 28.923828 16.474609C28.727328 16.107859 28.337672 15.907797 27.949219 15.941406 z M 54.460938 17.488281C54.209937 17.535531 53.975406 17.680156 53.816406 17.910156C53.507406 18.371156 53.626938 18.987641 54.085938 19.306641C54.227938 19.400641 54.383969 19.456656 54.542969 19.472656C54.899969 19.509656 55.257469 19.354156 55.480469 19.035156C55.787469 18.583156 55.671938 17.959391 55.210938 17.650391C54.980937 17.491391 54.711938 17.441031 54.460938 17.488281 z M 24.792969 18.066406C24.539219 18.028156 24.271828 18.0865 24.048828 18.25C23.602828 18.576 23.508937 19.199531 23.835938 19.644531C24.011937 19.883531 24.270062 20.020828 24.539062 20.048828C24.778063 20.072828 25.025188 20.007375 25.242188 19.859375C25.678187 19.531375 25.782078 18.908891 25.455078 18.462891C25.287078 18.239391 25.046719 18.104656 24.792969 18.066406 z M 58.197266 19.734375C57.971891 19.712875 57.738062 19.767797 57.539062 19.904297L37.011719 33.892578C36.911719 33.959578 36.826813 34.045531 36.757812 34.144531L20.289062 57.59375C20.008063 57.99375 20.058203 58.539812 20.408203 58.882812C20.600203 59.070813 20.853422 59.167969 21.107422 59.167969C21.314422 59.167969 21.522219 59.102656 21.699219 58.972656L44.521484 42.203125C44.612484 42.137125 44.689906 42.057844 44.753906 41.964844L58.927734 21.296875C59.199734 20.899875 59.150547 20.364437 58.810547 20.023438C58.640047 19.852937 58.422641 19.755875 58.197266 19.734375 z M 21.615234 20.660156C21.358859 20.660406 21.10225 20.757125 20.90625 20.953125C20.51525 21.345125 20.521109 21.979094 20.912109 22.371094C21.076109 22.538094 21.288578 22.630297 21.517578 22.654297C21.806578 22.683297 22.108031 22.584234 22.332031 22.365234L22.320312 22.365234C22.712312 21.973234 22.716219 21.339266 22.324219 20.947266C22.127719 20.756266 21.871609 20.659906 21.615234 20.660156 z M 60.591797 22.912109C60.337422 22.880984 60.072875 22.946594 59.859375 23.121094C59.422375 23.458094 59.346547 24.093531 59.685547 24.519531C59.863547 24.748531 60.111141 24.876344 60.369141 24.902344C60.618141 24.927344 60.878703 24.852359 61.095703 24.693359C61.523703 24.346359 61.597766 23.720203 61.259766 23.283203C61.090766 23.070203 60.846172 22.943234 60.591797 22.912109 z M 18.867188 23.705078C18.614313 23.744578 18.377844 23.882422 18.214844 24.107422C17.886844 24.556422 17.983641 25.179813 18.431641 25.507812C18.581641 25.613813 18.745062 25.679266 18.914062 25.697266C19.263063 25.733266 19.609078 25.586109 19.830078 25.287109C20.158078 24.837109 20.061281 24.216672 19.613281 23.888672C19.388781 23.724672 19.120062 23.665578 18.867188 23.705078 z M 62.587891 26.232422C62.459375 26.247875 62.332641 26.289172 62.212891 26.357422C61.722891 26.629422 61.559031 27.235844 61.832031 27.714844C61.993031 28.012844 62.287703 28.185797 62.595703 28.216797C62.794703 28.236797 63.008453 28.197703 63.189453 28.095703C63.669453 27.823703 63.843313 27.216328 63.570312 26.736328C63.366312 26.368828 62.973437 26.186063 62.587891 26.232422 z M 17.003906 27.101562C16.617328 27.072359 16.231969 27.272531 16.042969 27.644531L16.033203 27.642578C15.782203 28.130578 15.98175 28.734375 16.46875 28.984375C16.58275 29.047375 16.701078 29.077797 16.830078 29.091797C17.218078 29.131797 17.619359 28.931547 17.818359 28.560547C18.070359 28.063547 17.881766 27.460984 17.384766 27.208984C17.263016 27.146234 17.132766 27.111297 17.003906 27.101562 z M 64.431641 29.845703C64.302406 29.841234 64.169266 29.862359 64.041016 29.912109C63.529016 30.100109 63.269031 30.677219 63.457031 31.199219C63.590031 31.564219 63.928875 31.800891 64.296875 31.837891C64.445875 31.852891 64.598141 31.83625 64.744141 31.78125C65.267141 31.58325 65.527125 31.007141 65.328125 30.494141C65.179625 30.101891 64.819344 29.859109 64.431641 29.845703 z M 15.298828 30.777344C14.906906 30.808 14.558234 31.067188 14.427734 31.460938C14.252734 31.984938 14.535547 32.555469 15.060547 32.730469C15.129547 32.747469 15.208344 32.766438 15.277344 32.773438C15.735344 32.820437 16.176266 32.543703 16.322266 32.095703L16.332031 32.097656C16.506031 31.572656 16.212266 30.999172 15.697266 30.826172C15.563516 30.782422 15.429469 30.767125 15.298828 30.777344 z M 65.701172 33.705078C65.573297 33.680609 65.437031 33.679984 65.300781 33.708984C64.767781 33.814984 64.412344 34.342719 64.527344 34.886719C64.623344 35.318719 64.983109 35.635688 65.412109 35.679688C65.511109 35.689687 65.612844 35.679156 65.714844 35.660156C66.248844 35.544156 66.605234 35.017656 66.490234 34.472656C66.402484 34.072156 66.084797 33.778484 65.701172 33.705078 z M 14.582031 34.673828C14.038031 34.577828 13.517641 34.946234 13.431641 35.490234C13.336641 36.032234 13.706 36.542672 14.25 36.638672C14.269 36.640672 14.289359 36.643484 14.318359 36.646484C14.836359 36.699484 15.314437 36.344313 15.398438 35.820312C15.494438 35.277313 15.126031 34.757828 14.582031 34.673828 z M 37.369141 36.751953L42.113281 41.494141L25.433594 53.748047L37.369141 36.751953 z M 65.966797 37.646484C65.420797 37.670484 64.989437 38.141266 65.023438 38.697266C65.043437 39.192266 65.435828 39.592578 65.923828 39.642578C65.973828 39.647578 66.022266 39.643438 66.072266 39.648438C66.618266 39.613438 67.048625 39.144891 67.015625 38.587891C66.990625 38.042891 66.523797 37.612484 65.966797 37.646484 z M 14.066406 38.630859C13.514406 38.624859 13.057781 39.060047 13.050781 39.623047C13.047781 40.145047 13.436125 40.577859 13.953125 40.630859C13.973125 40.632859 14.002203 40.635672 14.033203 40.638672C14.585203 40.643672 15.042828 40.197531 15.048828 39.644531C15.064828 39.093531 14.618406 38.635859 14.066406 38.630859 z M 66.019531 41.642578C65.472531 41.586578 64.978828 41.988156 64.923828 42.535156C64.867828 43.082156 65.269406 43.577812 65.816406 43.632812C66.363406 43.688812 66.857109 43.285281 66.912109 42.738281C66.967109 42.191281 66.566531 41.698578 66.019531 41.642578 z M 14.160156 42.630859C13.610156 42.704859 13.2275 43.207766 13.3125 43.759766C13.3755 44.218766 13.751219 44.568281 14.199219 44.613281C14.278219 44.622281 14.359406 44.621375 14.441406 44.609375C14.981406 44.534375 15.365016 44.029516 15.291016 43.478516C15.216016 42.938516 14.711156 42.556859 14.160156 42.630859 z M 65.183594 45.029297C64.798891 45.092297 64.474609 45.382109 64.380859 45.787109C64.245859 46.316109 64.581094 46.864234 65.121094 46.990234C65.160094 47.004234 65.2 47.008672 65.25 47.013672C65.737 47.063672 66.202266 46.738047 66.322266 46.248047C66.448266 45.708047 66.112031 45.171875 65.582031 45.046875C65.447031 45.012875 65.311828 45.008297 65.183594 45.029297 z M 15.261719 46.53125C15.131906 46.518391 14.996031 46.530766 14.863281 46.572266C14.335281 46.729266 14.038078 47.281547 14.205078 47.810547C14.325078 48.215547 14.668641 48.482484 15.056641 48.521484C15.185641 48.534484 15.318125 48.517469 15.453125 48.480469C15.972125 48.323469 16.279281 47.761422 16.113281 47.232422C15.995531 46.835672 15.651156 46.569828 15.261719 46.53125 z M 64.117188 48.814453C63.728828 48.82125 63.362125 49.05425 63.203125 49.4375C63.000125 49.9485 63.242906 50.536 63.753906 50.75C63.840906 50.779 63.936344 50.809359 64.027344 50.818359C64.454344 50.862359 64.883641 50.613266 65.056641 50.197266C65.268641 49.687266 65.016859 49.099719 64.505859 48.886719C64.378109 48.836219 64.246641 48.812188 64.117188 48.814453 z M 16.560547 50.246094C16.431453 50.252438 16.301734 50.285453 16.177734 50.345703C15.670734 50.585703 15.468984 51.186594 15.708984 51.683594C15.866984 52.011594 16.167859 52.214047 16.505859 52.248047C16.685859 52.266047 16.868109 52.234391 17.037109 52.150391C17.534109 51.909391 17.747812 51.3095 17.507812 50.8125C17.327813 50.43975 16.947828 50.227062 16.560547 50.246094 z M 62.484375 52.402344C62.1 52.346422 61.703078 52.521891 61.486328 52.869141C61.206328 53.343141 61.354125 53.962187 61.828125 54.242188C61.961125 54.326188 62.096328 54.370766 62.236328 54.384766C62.614328 54.423766 62.994219 54.250156 63.199219 53.910156C63.488219 53.437156 63.331422 52.816109 62.857422 52.537109C62.739172 52.464609 62.6125 52.420984 62.484375 52.402344 z M 18.794922 53.722656C18.543422 53.675406 18.274375 53.724812 18.046875 53.882812C17.593875 54.187812 17.478203 54.819438 17.783203 55.273438C17.959203 55.522438 18.226625 55.670219 18.515625 55.699219C18.734625 55.721219 18.970781 55.665391 19.175781 55.525391C19.628781 55.220391 19.745453 54.590719 19.439453 54.136719L19.4375 54.146484C19.28 53.914484 19.046422 53.769906 18.794922 53.722656 z M 59.9375 55.644531C59.681375 55.667406 59.433359 55.787 59.255859 56C58.900859 56.426 58.958766 57.055156 59.384766 57.410156C59.541766 57.547156 59.735828 57.617719 59.923828 57.636719C60.242828 57.669719 60.575969 57.552203 60.792969 57.283203C61.148969 56.857203 61.092016 56.228047 60.666016 55.873047C60.458016 55.695547 60.193625 55.621656 59.9375 55.644531 z M 57.300781 58.507812C57.046031 58.491937 56.786031 58.573906 56.582031 58.753906C56.162031 59.122906 56.119281 59.750156 56.488281 60.160156C56.659281 60.358156 56.899672 60.474047 57.138672 60.498047C57.406672 60.525047 57.686484 60.443906 57.896484 60.253906C58.315484 59.893906 58.360234 59.255703 57.990234 58.845703C57.805234 58.636203 57.555531 58.523688 57.300781 58.507812 z M 23.949219 59.517578C23.694719 59.549578 23.451703 59.677484 23.283203 59.896484C22.938203 60.323484 23.014172 60.954781 23.451172 61.300781C23.600172 61.415781 23.785844 61.485906 23.964844 61.503906C24.292844 61.537906 24.637422 61.400094 24.857422 61.121094C25.192422 60.683094 25.116453 60.06375 24.689453 59.71875C24.470953 59.55075 24.203719 59.485578 23.949219 59.517578 z M 53.880859 60.919922C53.75325 60.941656 53.629172 60.989 53.513672 61.0625C53.039672 61.3655 52.905938 61.985219 53.210938 62.449219C53.373937 62.717219 53.658266 62.87725 53.947266 62.90625C54.167266 62.92825 54.391938 62.882953 54.585938 62.751953C55.048938 62.456953 55.181672 61.835281 54.888672 61.363281C54.667422 61.016031 54.263687 60.854719 53.880859 60.919922 z M 27.505859 61.720703C27.121203 61.67725 26.726688 61.864016 26.523438 62.228516C26.253438 62.713516 26.42125 63.32375 26.90625 63.59375C27.03125 63.65675 27.157875 63.698891 27.296875 63.712891C27.674875 63.751891 28.065438 63.560219 28.273438 63.199219C28.534438 62.713219 28.366859 62.11475 27.880859 61.84375C27.762109 61.7765 27.634078 61.735188 27.505859 61.720703 z M 50.509766 62.794922C50.379141 62.796219 50.245391 62.823906 50.119141 62.878906C49.613141 63.107906 49.393281 63.697172 49.613281 64.201172C49.759281 64.538172 50.079734 64.751109 50.427734 64.787109C50.596734 64.804109 50.770688 64.782984 50.929688 64.708984C51.433687 64.489984 51.664312 63.899531 51.445312 63.394531C51.279563 63.015781 50.901641 62.791031 50.509766 62.794922 z M 30.980469 63.384766C30.590188 63.403609 30.234594 63.654312 30.089844 64.039062C29.894844 64.562062 30.158641 65.131219 30.681641 65.324219C30.759641 65.353219 30.847734 65.371859 30.927734 65.380859C31.364734 65.425859 31.80375 65.168422 31.96875 64.732422C32.15275 64.208422 31.889953 63.640266 31.376953 63.447266C31.246203 63.398516 31.110563 63.378484 30.980469 63.384766 z M 46.894531 64.130859C46.766484 64.113406 46.633703 64.1195 46.501953 64.15625C45.963953 64.30225 45.648922 64.842859 45.794922 65.380859C45.902922 65.793859 46.254344 66.081094 46.652344 66.121094C46.771344 66.133094 46.894578 66.116844 47.017578 66.089844C47.544578 65.942844 47.862562 65.401234 47.726562 64.865234C47.617062 64.461734 47.278672 64.183219 46.894531 64.130859 z M 34.669922 64.494141C34.28775 64.571344 33.970875 64.874 33.890625 65.28125C33.775625 65.82225 34.126016 66.341031 34.666016 66.457031C34.706016 66.461031 34.735625 66.463797 34.765625 66.466797C35.272625 66.518797 35.749563 66.186828 35.851562 65.673828C35.958563 65.131828 35.610359 64.602094 35.068359 64.496094C34.932859 64.467094 34.797312 64.468406 34.669922 64.494141 z M 42.720703 64.857422C42.171703 64.922422 41.770937 65.413891 41.835938 65.962891C41.886938 66.440891 42.261516 66.800656 42.728516 66.847656C42.788516 66.853656 42.858688 66.849656 42.929688 66.847656C43.477688 66.792656 43.881406 66.291187 43.816406 65.742188C43.762406 65.194187 43.268703 64.802422 42.720703 64.857422 z M 38.880859 64.966797C38.329859 64.940797 37.863891 65.366016 37.837891 65.916016C37.812891 66.456016 38.208563 66.909891 38.726562 66.962891C38.745562 66.964891 38.766156 66.96675 38.785156 66.96875C39.336156 66.99475 39.802125 66.569531 39.828125 66.019531C39.855125 65.458531 39.430859 64.992797 38.880859 64.966797 z" fill="#195FDA" />
</svg>